<svg width="420" height="420" viewBox="0 0 420 420" fill="none" xmlns="http://www.w3.org/2000/svg">
<g clip-path="url(#clip0_5_117)">
<path d="M303.596 236.627C301.701 219.465 299.722 210.75 294.444 200.25C294.444 200.25 310.278 153 299.722 133.575C296.165 127.034 260.646 142.437 246.944 153C246.944 153 225.833 147.761 210 147.761C194.167 147.761 173.056 153 173.056 153C159.354 142.437 123.835 127.034 120.278 133.575C109.722 153 125.556 200.25 125.556 200.25C120.278 210.75 118.299 219.465 116.404 236.627C114.319 255.443 118.468 270.443 120.278 273.75C122.336 277.509 132.77 289.631 146.667 300C167.778 315.75 199.444 321 210 321C220.556 321 252.222 315.75 273.333 300C287.23 289.631 297.664 277.509 299.722 273.75C301.533 270.443 305.681 255.443 303.596 236.627Z" fill="#1F1919"/>
<path d="M210 234.375C225.833 234.375 225.833 237 225.833 242.25C225.833 247.5 217.917 258 210 258C202.083 258 194.167 247.5 194.167 242.25C194.167 237 194.161 234.375 210 234.375Z" fill="#F18F26"/>
<path d="M125.556 147.75C127.915 140.705 155.322 153 160.6 158.25C160.6 158.25 136.111 174 130.833 189.75C130.833 189.75 120.278 163.5 125.556 147.75ZM294.444 147.75C292.085 140.705 264.678 153 259.4 158.25C259.4 158.25 283.889 174 289.167 189.75C289.167 189.75 299.722 163.5 294.444 147.75Z" fill="#F18F26"/>
<path d="M141.041 161.416C141.041 153.992 173.056 168.75 167.778 174C162.5 179.25 157.222 182.416 151.944 187.666C146.667 192.916 141.041 166.666 141.041 161.416ZM278.959 161.416C278.959 153.992 246.944 168.75 252.222 174C257.5 179.25 262.778 182.416 268.056 187.666C273.333 192.916 278.959 166.666 278.959 161.416Z" fill="#1F1919"/>
<path d="M118.7 263.25C118.152 263.25 117.618 263.08 117.172 262.764C116.725 262.448 116.389 262.001 116.209 261.487C116.029 260.972 116.015 260.414 116.168 259.891C116.321 259.368 116.634 258.905 117.064 258.567C117.919 257.9 138.28 242.187 173.261 244.891C174.713 244.996 175.8 246.261 175.689 247.705C175.578 249.148 174.333 250.335 172.855 250.12C139.959 247.631 120.526 262.541 120.336 262.693C119.867 263.053 119.292 263.249 118.7 263.25ZM165.503 238.769C165.237 238.77 164.972 238.731 164.717 238.654C139.436 230.794 118.605 236.832 118.394 236.89C118.062 236.989 117.714 237.022 117.369 236.988C117.025 236.953 116.69 236.852 116.385 236.689C116.08 236.525 115.81 236.304 115.591 236.037C115.372 235.771 115.208 235.464 115.108 235.134C115.008 234.804 114.975 234.457 115.01 234.115C115.044 233.772 115.147 233.439 115.31 233.136C115.474 232.832 115.697 232.564 115.965 232.346C116.233 232.128 116.542 231.965 116.874 231.865C117.787 231.592 139.494 225.319 166.284 233.64C166.885 233.828 167.398 234.223 167.732 234.754C168.065 235.286 168.196 235.918 168.102 236.537C168.008 237.157 167.694 237.722 167.217 238.131C166.741 238.541 166.133 238.767 165.503 238.769ZM301.3 263.25C301.848 263.25 302.382 263.08 302.828 262.764C303.275 262.448 303.611 262.001 303.791 261.487C303.971 260.972 303.985 260.414 303.832 259.891C303.679 259.368 303.366 258.905 302.936 258.567C302.081 257.9 281.72 242.187 246.739 244.891C246.393 244.917 246.057 245.01 245.748 245.165C245.439 245.321 245.164 245.536 244.938 245.797C244.713 246.058 244.541 246.361 244.433 246.689C244.326 247.016 244.284 247.361 244.311 247.705C244.422 249.148 245.667 250.335 247.145 250.12C280.041 247.631 299.474 262.541 299.664 262.693C300.133 263.053 300.708 263.249 301.3 263.25ZM254.497 238.769C254.756 238.769 255.025 238.732 255.283 238.654C280.564 230.794 301.395 236.832 301.606 236.89C301.938 236.989 302.286 237.022 302.631 236.988C302.975 236.953 303.31 236.852 303.615 236.689C303.92 236.525 304.19 236.304 304.409 236.037C304.628 235.771 304.792 235.464 304.892 235.134C304.992 234.804 305.025 234.457 304.99 234.115C304.956 233.772 304.853 233.439 304.69 233.136C304.526 232.832 304.303 232.564 304.035 232.346C303.767 232.128 303.458 231.965 303.126 231.865C302.213 231.592 280.506 225.319 253.716 233.64C253.115 233.828 252.602 234.223 252.268 234.754C251.935 235.286 251.803 235.918 251.898 236.537C251.992 237.157 252.306 237.722 252.783 238.131C253.259 238.541 253.867 238.767 254.497 238.769Z" fill="#FFFFDB"/>
<path d="M178.333 226.5C184.163 226.5 188.889 218.273 188.889 208.125C188.889 197.977 184.163 189.75 178.333 189.75C172.504 189.75 167.778 197.977 167.778 208.125C167.778 218.273 172.504 226.5 178.333 226.5Z" fill="#FFFFDB"/>
<path d="M241.667 226.5C247.496 226.5 252.222 218.273 252.222 208.125C252.222 197.977 247.496 189.75 241.667 189.75C235.837 189.75 231.111 197.977 231.111 208.125C231.111 218.273 235.837 226.5 241.667 226.5Z" fill="#FFFFDB"/>
<path d="M225.833 195C224.789 195.002 223.767 194.696 222.897 194.119C222.028 193.543 221.35 192.722 220.95 191.762C220.551 190.802 220.447 189.745 220.652 188.726C220.857 187.707 221.361 186.771 222.102 186.038C244.501 163.757 267.1 163.5 268.056 163.5C269.455 163.496 270.799 164.046 271.791 165.028C272.784 166.01 273.343 167.344 273.347 168.737C273.35 170.129 272.797 171.466 271.81 172.453C270.823 173.44 269.482 173.996 268.082 174C267.739 174.005 248.623 174.504 229.565 193.462C229.075 193.95 228.494 194.337 227.853 194.601C227.213 194.865 226.526 195.001 225.833 195ZM194.167 195C193.473 195.001 192.787 194.865 192.147 194.601C191.506 194.337 190.925 193.95 190.435 193.462C171.298 174.43 152.108 174 151.918 174C150.522 173.986 149.188 173.424 148.207 172.435C147.226 171.447 146.678 170.113 146.682 168.724C146.685 167.337 147.241 166.009 148.227 165.029C149.214 164.05 150.551 163.5 151.944 163.5C152.894 163.5 175.499 163.757 197.898 186.038C198.639 186.771 199.143 187.707 199.348 188.726C199.553 189.745 199.449 190.802 199.05 191.762C198.65 192.722 197.972 193.543 197.103 194.119C196.233 194.696 195.211 195.002 194.167 195Z" fill="#FFFFDB"/>
<path d="M248.67 266.516C248.276 266.176 247.789 265.96 247.271 265.896C246.754 265.831 246.229 265.921 245.762 266.153L224.651 276.653C214.776 281.562 189.148 281.625 188.889 281.625C188.308 281.625 187.743 281.816 187.283 282.167C186.822 282.519 186.49 283.012 186.34 283.571C186.19 284.129 186.229 284.721 186.451 285.254C186.673 285.788 187.066 286.234 187.569 286.523L187.575 286.529C187.949 286.739 188.382 286.865 188.841 286.875H225.828C239.856 286.875 247.409 275.399 249.446 269.33C249.611 268.837 249.626 268.306 249.487 267.805C249.349 267.304 249.065 266.856 248.67 266.516Z" fill="#FFFFDB"/>
</g>
<path d="M272.222 126.074C266.933 132.439 258.08 134.691 249.662 135.442C248.249 128.649 242.182 103.417 230 103.417C219.32 103.417 215.471 108.235 210 108.235C204.529 108.235 200.68 103.417 190 103.417C177.818 103.417 171.751 128.649 170.338 135.442C161.92 134.691 153.067 132.434 147.778 126.074C138.209 114.564 125.556 123.044 131.964 135.676C142.089 155.626 166.578 169.667 210 169.667C253.418 169.667 277.907 155.626 288.036 135.676C294.444 123.044 281.791 114.564 272.222 126.074Z" fill="#664500"/>
<path d="M225.556 112.25C217.249 112.25 214.253 116.508 210 116.508C205.747 116.508 202.751 112.25 194.444 112.25C183.498 112.25 178.889 142.062 178.889 142.062C178.889 142.062 184.587 152 210 152C235.418 152 241.111 142.062 241.111 142.062C241.111 142.062 236.502 112.25 225.556 112.25Z" fill="#825D0E"/>
<path d="M178.889 125.5C178.889 125.5 188.107 134.333 210 134.333C231.898 134.333 241.111 125.5 241.111 125.5V134.333C241.111 134.333 231.236 143.167 210 143.167C188.764 143.167 178.889 134.333 178.889 134.333V125.5Z" fill="#664500"/>
<defs>
<clipPath id="clip0_5_117">
<rect width="190" height="189" fill="white" transform="translate(115 132)"/>
</clipPath>
</defs>
</svg>
