<svg width="420" height="420" viewBox="0 0 420 420" fill="none" xmlns="http://www.w3.org/2000/svg">
<g clip-path="url(#clip0_5_117)">
<rect width="420" height="420" fill="#F9F1DE"/>
<path d="M601.695 42.8668C699.59 -32.7613 756.44 -150.379 774.223 -194.52L735.688 -210.593C694.302 -107.755 612.081 -45.3024 576.953 -28.8683C551.67 -17.0404 510.258 -1.77691 471.609 2.25443C444.019 5.13215 394.426 -1.09811 364.777 -17.2846C306.434 -49.1358 254.96 -87.8009 228.536 -174.195C220.562 -200.268 203.157 -316.709 244.373 -415.523L-23.7625 -527.364C-58.7324 -439.494 -70.7963 -346.816 -67.7994 -254.581C-66.8624 -225.747 -59.4734 -182.757 -47.9703 -143.952C-33.6904 -95.78 -12.7896 -56.1474 -9.6179 -50.6177C14.3911 -8.75869 60.6309 55.3042 125.847 94.5957C182.017 128.437 246.615 144.278 296.084 147.406C360.361 151.47 479.326 137.402 601.695 42.8668Z" fill="#FF8A00"/>
<path d="M3.83583 170.194C-115.283 187.309 -219.774 259.641 -255.982 288.489L-231.061 320.562C-146.743 253.333 -47.2083 239.861 -9.59309 242.782C17.4793 244.884 59.8521 251.806 94.5046 266.914C119.241 277.699 158.241 306.738 175.585 334.65C209.714 389.573 234.764 446.973 215.734 532.776C209.991 558.671 168.927 665.59 86.6814 729.495L260.09 952.67C331.803 895.037 386.428 822.357 428.09 742.835C441.114 717.976 455.459 678.039 464.316 639.675C475.311 592.05 476.608 548.482 476.573 542.28C476.306 495.337 467.858 418.944 431.476 354.428C400.139 298.861 353.041 254.495 312.66 228.141C260.191 193.899 152.734 148.801 3.83583 170.194Z" fill="#FF8A00"/>
</g>
<defs>
<clipPath id="clip0_5_117">
<rect width="420" height="420" fill="white"/>
</clipPath>
</defs>
</svg>
