<svg width="484" height="484" viewBox="0 0 484 484" fill="none" xmlns="http://www.w3.org/2000/svg">
<g clip-path="url(#clip0_5_117)">
<rect width="484" height="484" fill="#4B3434"/>
<path d="M-138.483 534.567C-203.07 646.543 -211.31 782.805 -210.968 832.532L-167.339 832.764C-168.177 716.929 -113.507 623.913 -86.0796 594.077C-66.3394 572.604 -32.3745 541.405 3.38184 522.16C28.906 508.422 79.3149 494.749 114.401 498.619C183.442 506.236 248.55 523.166 308.4 596.177C326.462 618.211 389.527 723.847 388.931 835.725L692.517 837.342C691.422 738.522 666.277 644.152 626.751 556.191C614.394 528.693 590.179 490.075 563.65 457.136C530.717 416.246 494.776 386.239 489.514 382.154C449.685 351.229 379.55 307.672 300.91 295.593C233.179 285.19 164.45 295.533 115.394 312.155C51.651 333.754 -57.7487 394.596 -138.483 534.567Z" fill="#FF8A00"/>
</g>
<defs>
<clipPath id="clip0_5_117">
<rect width="484" height="484" fill="white"/>
</clipPath>
</defs>
</svg>
