<svg width="420" height="420" viewBox="0 0 420 420" fill="none" xmlns="http://www.w3.org/2000/svg">
<g clip-path="url(#clip0_17_5)">
<path d="M276.988 187.287C275.621 174.938 274.194 168.667 270.389 161.111C270.389 161.111 281.805 127.111 274.194 113.133C271.629 108.426 246.018 119.51 236.139 127.111C236.139 127.111 220.917 123.341 209.5 123.341C198.083 123.341 182.861 127.111 182.861 127.111C172.982 119.51 147.37 108.426 144.805 113.133C137.194 127.111 148.611 161.111 148.611 161.111C144.805 168.667 143.378 174.938 142.012 187.287C140.509 200.827 143.5 211.62 144.805 214C146.29 216.705 153.813 225.428 163.833 232.889C179.055 244.222 201.889 248 209.5 248C217.111 248 239.944 244.222 255.167 232.889C265.187 225.428 272.71 216.705 274.194 214C275.5 211.62 278.491 200.827 276.988 187.287Z" fill="#1F1919"/>
<path d="M209.5 185.667C220.917 185.667 220.917 187.556 220.917 191.333C220.917 195.111 215.208 202.667 209.5 202.667C203.792 202.667 198.083 195.111 198.083 191.333C198.083 187.556 198.079 185.667 209.5 185.667Z" fill="#F18F26"/>
<path d="M148.611 123.333C150.312 118.264 170.074 127.111 173.88 130.889C173.88 130.889 156.222 142.222 152.417 153.556C152.417 153.556 144.805 134.667 148.611 123.333ZM270.389 123.333C268.688 118.264 248.925 127.111 245.12 130.889C245.12 130.889 262.778 142.222 266.583 153.556C266.583 153.556 274.194 134.667 270.389 123.333Z" fill="#F18F26"/>
<path d="M159.776 133.167C159.776 127.825 182.861 138.444 179.055 142.222C175.25 146 171.444 148.278 167.639 152.056C163.833 155.834 159.776 136.945 159.776 133.167ZM259.223 133.167C259.223 127.825 236.139 138.444 239.944 142.222C243.75 146 247.555 148.278 251.361 152.056C255.167 155.834 259.223 136.945 259.223 133.167Z" fill="#1F1919"/>
<path d="M143.668 206.444C143.273 206.444 142.888 206.322 142.566 206.094C142.244 205.867 142.001 205.546 141.872 205.176C141.742 204.805 141.732 204.404 141.842 204.028C141.953 203.651 142.178 203.318 142.488 203.075C143.104 202.595 157.786 191.288 183.009 193.234C184.056 193.309 184.84 194.22 184.76 195.258C184.68 196.297 183.782 197.151 182.716 196.996C158.996 195.206 144.984 205.934 144.847 206.044C144.509 206.303 144.095 206.443 143.668 206.444ZM177.415 188.829C177.223 188.829 177.032 188.801 176.848 188.746C158.62 183.09 143.599 187.435 143.447 187.476C143.208 187.548 142.957 187.572 142.708 187.547C142.46 187.522 142.219 187.449 141.999 187.331C141.779 187.214 141.584 187.055 141.426 186.863C141.268 186.671 141.15 186.45 141.078 186.213C141.006 185.975 140.982 185.726 141.007 185.479C141.032 185.233 141.106 184.993 141.224 184.775C141.342 184.557 141.502 184.363 141.696 184.207C141.889 184.05 142.112 183.932 142.351 183.861C143.009 183.664 158.661 179.15 177.978 185.138C178.412 185.273 178.782 185.557 179.022 185.94C179.263 186.322 179.357 186.777 179.289 187.223C179.221 187.668 178.995 188.075 178.651 188.37C178.308 188.664 177.869 188.827 177.415 188.829ZM275.332 206.444C275.727 206.444 276.112 206.322 276.434 206.094C276.756 205.867 276.998 205.546 277.128 205.176C277.258 204.805 277.268 204.404 277.158 204.028C277.047 203.651 276.822 203.318 276.512 203.075C275.895 202.595 261.214 191.288 235.99 193.234C235.741 193.252 235.499 193.319 235.276 193.431C235.053 193.543 234.855 193.698 234.692 193.886C234.53 194.074 234.406 194.292 234.328 194.527C234.251 194.763 234.221 195.011 234.24 195.258C234.32 196.297 235.218 197.151 236.283 196.996C260.003 195.206 274.015 205.934 274.152 206.044C274.491 206.303 274.905 206.443 275.332 206.444ZM241.585 188.829C241.771 188.829 241.965 188.802 242.152 188.746C260.38 183.09 275.401 187.435 275.553 187.476C275.792 187.548 276.043 187.572 276.292 187.547C276.54 187.522 276.781 187.449 277.001 187.331C277.221 187.214 277.416 187.055 277.574 186.863C277.732 186.671 277.85 186.45 277.922 186.213C277.994 185.975 278.018 185.726 277.993 185.479C277.968 185.233 277.894 184.993 277.776 184.775C277.658 184.557 277.497 184.363 277.304 184.207C277.111 184.05 276.888 183.932 276.649 183.861C275.991 183.664 260.338 179.15 241.021 185.138C240.588 185.273 240.218 185.557 239.978 185.94C239.737 186.322 239.642 186.777 239.71 187.223C239.778 187.668 240.005 188.075 240.348 188.37C240.692 188.664 241.131 188.827 241.585 188.829Z" fill="#FFFFDB"/>
<path d="M186.667 180C190.87 180 194.278 174.08 194.278 166.778C194.278 159.475 190.87 153.555 186.667 153.555C182.463 153.555 179.055 159.475 179.055 166.778C179.055 174.08 182.463 180 186.667 180Z" fill="#FFFFDB"/>
<path d="M232.333 180C236.537 180 239.944 174.08 239.944 166.778C239.944 159.475 236.537 153.555 232.333 153.555C228.13 153.555 224.722 159.475 224.722 166.778C224.722 174.08 228.13 180 232.333 180Z" fill="#FFFFDB"/>
<path d="M220.917 157.333C220.163 157.335 219.426 157.114 218.799 156.7C218.173 156.285 217.684 155.694 217.396 155.003C217.107 154.312 217.032 153.552 217.18 152.819C217.328 152.085 217.692 151.412 218.226 150.885C234.377 134.852 250.672 134.667 251.361 134.667C252.37 134.664 253.339 135.06 254.055 135.766C254.77 136.473 255.174 137.433 255.176 138.435C255.179 139.437 254.78 140.399 254.068 141.109C253.356 141.819 252.389 142.22 251.38 142.222C251.133 142.226 237.349 142.585 223.607 156.226C223.254 156.578 222.835 156.856 222.373 157.046C221.911 157.236 221.416 157.334 220.917 157.333ZM198.083 157.333C197.583 157.334 197.088 157.236 196.627 157.046C196.165 156.856 195.746 156.578 195.393 156.226C181.594 142.532 167.757 142.222 167.62 142.222C166.613 142.212 165.651 141.807 164.944 141.096C164.237 140.385 163.842 139.425 163.845 138.426C163.847 137.428 164.247 136.472 164.959 135.767C165.67 135.062 166.634 134.667 167.639 134.667C168.324 134.667 184.623 134.852 200.774 150.885C201.308 151.412 201.672 152.085 201.819 152.819C201.967 153.552 201.892 154.312 201.604 155.003C201.316 155.694 200.827 156.285 200.2 156.7C199.573 157.114 198.837 157.335 198.083 157.333Z" fill="#FFFFDB"/>
<path d="M237.383 208.794C237.099 208.55 236.748 208.395 236.375 208.348C236.001 208.302 235.623 208.366 235.286 208.534L220.064 216.089C212.944 219.621 194.464 219.667 194.278 219.667C193.859 219.667 193.452 219.804 193.119 220.057C192.787 220.31 192.548 220.665 192.44 221.067C192.331 221.468 192.359 221.894 192.52 222.278C192.68 222.663 192.964 222.983 193.326 223.191L193.33 223.195C193.6 223.346 193.912 223.437 194.243 223.444H220.913C231.028 223.444 236.474 215.186 237.943 210.819C238.062 210.465 238.072 210.083 237.972 209.722C237.873 209.362 237.668 209.039 237.383 208.794Z" fill="#FFFFDB"/>
</g>
<g clip-path="url(#clip1_17_5)">
<path d="M254.222 107.582C250.421 112.185 244.057 113.814 238.007 114.357C236.991 109.444 232.631 91.1944 223.875 91.1944C216.199 91.1944 213.432 94.6796 209.5 94.6796C205.568 94.6796 202.801 91.1944 195.125 91.1944C186.369 91.1944 182.008 109.444 180.993 114.357C174.942 113.814 168.579 112.182 164.778 107.582C157.9 99.2572 148.805 105.391 153.412 114.527C160.689 128.956 178.29 139.111 209.5 139.111C240.706 139.111 258.308 128.956 265.588 114.527C270.194 105.391 261.1 99.2572 254.222 107.582Z" fill="#664500"/>
<path d="M220.68 97.5833C214.71 97.5833 212.557 100.663 209.5 100.663C206.443 100.663 204.29 97.5833 198.319 97.5833C190.451 97.5833 187.139 119.146 187.139 119.146C187.139 119.146 191.234 126.333 209.5 126.333C227.769 126.333 231.861 119.146 231.861 119.146C231.861 119.146 228.548 97.5833 220.68 97.5833Z" fill="#825D0E"/>
<path d="M187.139 107.167C187.139 107.167 193.764 113.556 209.5 113.556C225.239 113.556 231.861 107.167 231.861 107.167V113.556C231.861 113.556 224.763 119.944 209.5 119.944C194.237 119.944 187.139 113.556 187.139 113.556V107.167Z" fill="#664500"/>
</g>
<path d="M308.813 224.39L325.567 216.096L322.2 209.456L320.923 210.088L317.743 203.664C314.612 206.217 312.142 209.369 312.174 214.419L296.524 222.166L270.19 235.204C270.657 237.61 271.019 239.422 271.267 240.889C267.849 240.58 259.16 239.424 259.16 239.424C262.453 243.768 266.53 246.548 271.217 248.11C270.97 249.145 270.62 250.34 270.162 251.878C269.827 264.73 273.455 269.636 276.593 275.049C282.353 277.783 289.329 274.081 292.848 270.489C289.636 264.338 287.662 257.929 288.911 249.757C296.507 252.004 303.325 245.768 305.074 239.662C305.859 236.924 304.998 234.577 303.483 232.212L310.876 228.552L308.813 224.39Z" fill="black"/>
<path d="M242.188 276.438H236.812V287.188H242.188V276.438Z" fill="#4B3434"/>
<path d="M221.455 279.125H231.438V273.75C231.438 272.266 232.641 271.062 234.125 271.062H244.875C246.359 271.062 247.563 272.266 247.563 273.75V279.125H256.432L260.925 270.968C261.843 269.303 261.811 267.276 260.844 265.64C259.877 264.004 258.118 263 256.217 263H223.375C221.632 263 219.997 263.845 218.99 265.268C217.982 266.69 217.726 268.512 218.305 270.157L221.455 279.125Z" fill="#1F1919"/>
<path d="M300.681 292.772C298.675 291.938 296.36 292.398 294.825 293.938L288.467 300.296C286.096 302.666 282.592 303.638 279.324 302.826L277.587 302.392C276.763 302.185 276.026 302.017 275.352 301.864C272.406 301.193 271.953 301.09 270.289 299.431L257.509 285.847C257.094 285.431 256.745 285.004 256.463 284.5H247.562V289.875C247.562 291.359 246.359 292.563 244.875 292.563H234.125C232.641 292.563 231.438 291.359 231.438 289.875V284.5H222.725C222.725 285.508 222.592 286.488 222.316 287.454L219.241 298.216C218.417 301.097 218 304.079 218 307.076V327.5C218 330.468 220.407 332.875 223.375 332.875H244.875C247.843 332.875 250.25 330.468 250.25 327.5V325.344C252.434 326.449 254.529 327.505 255.612 328.135L257.172 329.06C260.441 331.022 263.527 332.875 269.062 332.875H277.125C290.437 332.875 300.049 320.068 303.328 303.48C303.804 301.073 304 299.365 304 297.738C304 295.481 302.69 293.604 300.681 292.772Z" fill="#1F1919"/>
<path d="M174.812 276.438H180.188V287.188H174.812V276.438Z" fill="#4B3434"/>
<path d="M195.545 279.125H185.562V273.75C185.562 272.266 184.359 271.062 182.875 271.062H172.125C170.641 271.062 169.437 272.266 169.437 273.75V279.125H160.568L156.075 270.968C155.157 269.303 155.189 267.276 156.156 265.64C157.123 264.004 158.882 263 160.783 263H193.625C195.368 263 197.003 263.845 198.01 265.268C199.018 266.69 199.274 268.512 198.695 270.157L195.545 279.125Z" fill="#1F1919"/>
<path d="M116.319 292.772C118.325 291.938 120.64 292.398 122.175 293.938L128.533 300.296C130.904 302.666 134.408 303.638 137.676 302.826L139.413 302.392C140.237 302.185 140.974 302.017 141.648 301.864C144.594 301.193 145.047 301.09 146.711 299.431L159.491 285.847C159.906 285.431 160.255 285.004 160.537 284.5H169.438V289.875C169.438 291.359 170.641 292.563 172.125 292.563H182.875C184.359 292.563 185.562 291.359 185.562 289.875V284.5H194.275C194.275 285.508 194.408 286.488 194.684 287.454L197.759 298.216C198.583 301.097 199 304.079 199 307.076V327.5C199 330.468 196.593 332.875 193.625 332.875H172.125C169.157 332.875 166.75 330.468 166.75 327.5V325.344C164.566 326.449 162.471 327.505 161.388 328.135L159.828 329.06C156.559 331.022 153.473 332.875 147.938 332.875H139.875C126.563 332.875 116.951 320.068 113.672 303.48C113.196 301.073 113 299.365 113 297.738C113 295.481 114.31 293.604 116.319 292.772Z" fill="#1F1919"/>
<path d="M110.41 224.39L93.6568 216.096L97.0237 209.456L98.3007 210.088L101.481 203.664C104.611 206.217 107.082 209.369 107.049 214.419L122.7 222.166L149.034 235.204C148.566 237.61 148.204 239.422 147.956 240.889C151.374 240.58 160.063 239.424 160.063 239.424C156.77 243.768 152.693 246.548 148.007 248.11C148.253 249.145 148.603 250.34 149.061 251.878C149.396 264.73 145.769 269.636 142.631 275.049C136.871 277.783 129.895 274.081 126.376 270.489C129.588 264.338 131.562 257.929 130.312 249.757C122.717 252.004 115.899 245.768 114.149 239.662C113.364 236.924 114.225 234.577 115.741 232.212L108.347 228.552L110.41 224.39Z" fill="black"/>
<defs>
<clipPath id="clip0_17_5">
<rect width="137" height="136" fill="white" transform="translate(141 112)"/>
</clipPath>
<clipPath id="clip1_17_5">
<rect width="115" height="115" fill="white" transform="translate(152 88)"/>
</clipPath>
</defs>
</svg>
