<svg width="484" height="484" viewBox="0 0 484 484" fill="none" xmlns="http://www.w3.org/2000/svg">
<g clip-path="url(#clip0_5_117)">
<path d="M289.594 324.75H281.906V340.125H289.594V324.75Z" fill="#4B3434"/>
<path d="M259.941 328.594H274.219V320.906C274.219 318.784 275.94 317.062 278.062 317.062H293.437C295.56 317.062 297.281 318.784 297.281 320.906V328.594H309.967L316.393 316.927C317.705 314.546 317.66 311.648 316.277 309.307C314.894 306.967 312.379 305.531 309.659 305.531H262.687C260.195 305.531 257.857 306.74 256.415 308.774C254.974 310.809 254.608 313.414 255.436 315.767L259.941 328.594Z" fill="#1F1919"/>
<path d="M373.253 348.113C370.384 346.919 367.073 347.578 364.877 349.78L355.784 358.873C352.392 362.262 347.381 363.653 342.708 362.492L340.223 361.87C339.044 361.576 337.991 361.335 337.027 361.116C332.813 360.157 332.166 360.008 329.786 357.636L311.507 338.207C310.914 337.613 310.414 337.002 310.011 336.281H297.281V343.969C297.281 346.092 295.56 347.813 293.438 347.813H278.062C275.94 347.813 274.219 346.092 274.219 343.969V336.281H261.759C261.759 337.723 261.568 339.124 261.173 340.506L256.775 355.898C255.597 360.02 255 364.283 255 368.57V397.781C255 402.027 258.442 405.469 262.688 405.469H293.438C297.683 405.469 301.125 402.027 301.125 397.781V394.698C304.248 396.278 307.245 397.789 308.794 398.69L311.025 400.013C315.7 402.819 320.115 405.469 328.031 405.469H339.562C358.601 405.469 372.349 387.152 377.039 363.428C377.72 359.984 378 357.542 378 355.215C378 351.987 376.127 349.303 373.253 348.113Z" fill="#1F1919"/>
</g>
<g clip-path="url(#clip1_5_117)">
<path d="M189.406 324.75H197.094V340.125H189.406V324.75Z" fill="#4B3434"/>
<path d="M219.059 328.594H204.781V320.906C204.781 318.784 203.06 317.062 200.938 317.062H185.563C183.44 317.062 181.719 318.784 181.719 320.906V328.594H169.033L162.607 316.927C161.295 314.546 161.34 311.648 162.723 309.307C164.106 306.967 166.621 305.531 169.341 305.531H216.313C218.805 305.531 221.143 306.74 222.585 308.774C224.026 310.809 224.392 313.414 223.564 315.767L219.059 328.594Z" fill="#1F1919"/>
<path d="M105.747 348.113C108.616 346.919 111.927 347.578 114.123 349.78L123.216 358.873C126.608 362.262 131.619 363.653 136.292 362.492L138.777 361.87C139.956 361.576 141.009 361.335 141.973 361.116C146.187 360.157 146.834 360.008 149.214 357.636L167.493 338.207C168.086 337.613 168.586 337.002 168.989 336.281H181.719V343.969C181.719 346.092 183.44 347.813 185.562 347.813H200.938C203.06 347.813 204.781 346.092 204.781 343.969V336.281H217.241C217.241 337.723 217.432 339.124 217.827 340.506L222.225 355.898C223.403 360.02 224 364.283 224 368.57V397.781C224 402.027 220.558 405.469 216.312 405.469H185.562C181.317 405.469 177.875 402.027 177.875 397.781V394.698C174.752 396.278 171.755 397.789 170.206 398.69L167.975 400.013C163.3 402.819 158.885 405.469 150.969 405.469H139.438C120.399 405.469 106.651 387.152 101.961 363.428C101.28 359.984 101 357.542 101 355.215C101 351.987 102.873 349.303 105.747 348.113Z" fill="#1F1919"/>
</g>
<g clip-path="url(#clip2_5_117)">
<path d="M322.788 203.234C321.153 188.433 319.444 180.917 314.889 171.861C314.889 171.861 328.556 131.111 319.444 114.358C316.374 108.717 285.715 122.001 273.889 131.111C273.889 131.111 255.667 126.592 242 126.592C228.333 126.592 210.111 131.111 210.111 131.111C198.285 122.001 167.626 108.717 164.556 114.358C155.444 131.111 169.111 171.861 169.111 171.861C164.556 180.917 162.847 188.433 161.212 203.234C159.412 219.462 162.993 232.397 164.556 235.25C166.332 238.492 175.339 248.947 187.333 257.889C205.556 271.472 232.889 276 242 276C251.111 276 278.444 271.472 296.667 257.889C308.661 248.947 317.668 238.492 319.444 235.25C321.007 232.397 324.588 219.462 322.788 203.234Z" fill="#1F1919"/>
<path d="M242 201.292C255.667 201.292 255.667 203.556 255.667 208.083C255.667 212.611 248.833 221.667 242 221.667C235.167 221.667 228.333 212.611 228.333 208.083C228.333 203.556 228.329 201.292 242 201.292Z" fill="#F18F26"/>
<path d="M169.111 126.583C171.147 120.507 194.804 131.111 199.36 135.639C199.36 135.639 178.222 149.222 173.667 162.806C173.667 162.806 164.556 140.167 169.111 126.583ZM314.889 126.583C312.853 120.507 289.196 131.111 284.64 135.639C284.64 135.639 305.778 149.222 310.333 162.806C310.333 162.806 319.444 140.167 314.889 126.583Z" fill="#F18F26"/>
<path d="M182.477 138.369C182.477 131.967 210.111 144.694 205.556 149.222C201 153.75 196.444 156.48 191.889 161.008C187.333 165.536 182.477 142.897 182.477 138.369ZM301.523 138.369C301.523 131.967 273.889 144.694 278.444 149.222C283 153.75 287.556 156.48 292.111 161.008C296.667 165.536 301.523 142.897 301.523 138.369Z" fill="#1F1919"/>
<path d="M163.193 226.194C162.721 226.194 162.26 226.047 161.874 225.775C161.489 225.503 161.199 225.118 161.044 224.674C160.888 224.23 160.876 223.749 161.008 223.298C161.14 222.847 161.411 222.447 161.781 222.156C162.519 221.581 180.095 208.029 210.289 210.361C211.542 210.451 212.48 211.543 212.384 212.788C212.289 214.033 211.214 215.056 209.938 214.87C181.543 212.724 164.77 225.583 164.606 225.714C164.201 226.024 163.704 226.193 163.193 226.194ZM203.592 205.081C203.362 205.082 203.133 205.048 202.913 204.982C181.092 198.204 163.111 203.411 162.929 203.46C162.643 203.546 162.343 203.575 162.045 203.545C161.748 203.515 161.459 203.428 161.196 203.287C160.932 203.146 160.7 202.955 160.51 202.725C160.321 202.495 160.18 202.23 160.093 201.946C160.007 201.661 159.978 201.363 160.008 201.067C160.038 200.772 160.126 200.485 160.268 200.223C160.409 199.961 160.601 199.73 160.833 199.542C161.064 199.354 161.331 199.213 161.617 199.127C162.405 198.892 181.142 193.481 204.266 200.658C204.785 200.82 205.228 201.161 205.516 201.619C205.804 202.077 205.917 202.623 205.836 203.157C205.754 203.691 205.483 204.178 205.072 204.531C204.66 204.884 204.136 205.079 203.592 205.081ZM320.807 226.194C321.279 226.194 321.74 226.047 322.126 225.775C322.511 225.503 322.801 225.118 322.956 224.674C323.112 224.23 323.124 223.749 322.992 223.298C322.86 222.847 322.589 222.447 322.219 222.156C321.481 221.581 303.905 208.029 273.711 210.361C273.413 210.383 273.123 210.464 272.856 210.598C272.589 210.732 272.352 210.917 272.157 211.142C271.962 211.368 271.814 211.629 271.722 211.911C271.629 212.194 271.593 212.492 271.616 212.788C271.711 214.033 272.786 215.056 274.062 214.87C302.457 212.724 319.23 225.583 319.394 225.714C319.799 226.024 320.296 226.193 320.807 226.194ZM280.408 205.081C280.631 205.081 280.863 205.05 281.087 204.982C302.908 198.204 320.889 203.411 321.071 203.46C321.357 203.546 321.657 203.575 321.955 203.545C322.252 203.515 322.541 203.428 322.804 203.287C323.068 203.146 323.301 202.955 323.49 202.725C323.679 202.495 323.82 202.23 323.907 201.946C323.993 201.661 324.022 201.363 323.992 201.067C323.962 200.772 323.874 200.485 323.732 200.223C323.591 199.961 323.399 199.73 323.167 199.542C322.936 199.354 322.669 199.213 322.383 199.127C321.595 198.892 302.858 193.481 279.734 200.658C279.215 200.82 278.772 201.161 278.484 201.619C278.196 202.077 278.083 202.623 278.164 203.157C278.246 203.691 278.517 204.178 278.928 204.531C279.34 204.884 279.864 205.079 280.408 205.081Z" fill="#D6D6D6"/>
<path d="M214.667 194.5C219.699 194.5 223.778 187.405 223.778 178.653C223.778 169.901 219.699 162.805 214.667 162.805C209.635 162.805 205.556 169.901 205.556 178.653C205.556 187.405 209.635 194.5 214.667 194.5Z" fill="#D6D6D6"/>
<path d="M269.333 194.5C274.365 194.5 278.444 187.405 278.444 178.653C278.444 169.901 274.365 162.805 269.333 162.805C264.301 162.805 260.222 169.901 260.222 178.653C260.222 187.405 264.301 194.5 269.333 194.5Z" fill="#D6D6D6"/>
<path d="M255.667 167.333C254.765 167.335 253.883 167.071 253.132 166.574C252.382 166.077 251.797 165.369 251.452 164.541C251.107 163.713 251.017 162.801 251.194 161.922C251.371 161.044 251.807 160.237 252.446 159.604C271.78 140.388 291.287 140.167 292.111 140.167C293.319 140.164 294.479 140.638 295.336 141.485C296.192 142.332 296.675 143.482 296.678 144.683C296.681 145.884 296.204 147.037 295.352 147.888C294.5 148.739 293.342 149.219 292.134 149.222C291.838 149.227 275.338 149.657 258.887 166.007C258.465 166.428 257.963 166.762 257.41 166.989C256.857 167.217 256.265 167.334 255.667 167.333ZM228.333 167.333C227.735 167.334 227.142 167.217 226.59 166.989C226.037 166.762 225.535 166.428 225.113 166.007C208.594 149.593 192.03 149.222 191.866 149.222C190.661 149.21 189.51 148.725 188.663 147.873C187.816 147.02 187.343 145.87 187.347 144.672C187.349 143.476 187.829 142.33 188.68 141.486C189.532 140.641 190.686 140.167 191.889 140.167C192.709 140.167 212.22 140.388 231.554 159.604C232.193 160.237 232.629 161.044 232.806 161.922C232.983 162.801 232.893 163.713 232.548 164.541C232.203 165.369 231.618 166.077 230.868 166.574C230.117 167.071 229.235 167.335 228.333 167.333Z" fill="#D6D6D6"/>
<path d="M275.379 229.011C275.038 228.718 274.618 228.532 274.171 228.476C273.724 228.421 273.271 228.498 272.868 228.698L254.646 237.754C246.123 241.987 224.001 242.042 223.778 242.042C223.276 242.042 222.789 242.206 222.391 242.51C221.993 242.813 221.707 243.238 221.578 243.72C221.448 244.201 221.482 244.711 221.673 245.172C221.865 245.632 222.205 246.017 222.639 246.266L222.643 246.271C222.967 246.452 223.34 246.56 223.737 246.569H255.662C267.771 246.569 274.29 236.672 276.048 231.438C276.191 231.013 276.203 230.555 276.084 230.123C275.965 229.691 275.719 229.304 275.379 229.011Z" fill="#D6D6D6"/>
</g>
<path d="M323.667 122.248C316.725 130.533 305.105 133.466 294.057 134.443C292.202 125.6 284.239 92.75 268.25 92.75C254.232 92.75 249.181 99.0233 242 99.0233C234.819 99.0233 229.767 92.75 215.75 92.75C199.761 92.75 191.798 125.6 189.943 134.443C178.895 133.466 167.275 130.528 160.333 122.248C147.774 107.263 131.167 118.303 139.578 134.748C152.867 160.721 185.008 179 242 179C298.986 179 331.127 160.721 344.422 134.748C352.833 118.303 336.226 107.263 323.667 122.248Z" fill="#664500"/>
<path d="M262.417 104.25C251.514 104.25 247.583 109.793 242 109.793C236.418 109.793 232.486 104.25 221.583 104.25C207.216 104.25 201.167 143.062 201.167 143.062C201.167 143.062 208.645 156 242 156C275.361 156 282.833 143.062 282.833 143.062C282.833 143.062 276.784 104.25 262.417 104.25Z" fill="#825D0E"/>
<path d="M201.167 121.5C201.167 121.5 213.265 133 242 133C270.741 133 282.833 121.5 282.833 121.5V133C282.833 133 269.872 144.5 242 144.5C214.128 144.5 201.167 133 201.167 133V121.5Z" fill="#664500"/>
<g clip-path="url(#clip3_5_117)">
<path d="M155 255.456C155.598 255.531 156.192 255.635 156.78 255.767C157.212 255.868 157.652 255.979 158.095 256.119C158.541 256.259 158.981 256.418 159.414 256.595C159.844 256.775 160.263 256.977 160.671 257.202L161.26 257.542C161.454 257.654 161.633 257.787 161.809 257.912C162.145 258.153 162.465 258.415 162.768 258.697C163.035 258.945 163.287 259.209 163.52 259.49C163.743 259.741 163.913 259.998 164.071 260.212C164.229 260.426 164.337 260.634 164.432 260.798L164.705 261.324L164.268 260.932C164.125 260.813 163.944 260.679 163.745 260.524C163.546 260.369 163.301 260.218 163.015 260.066C162.73 259.904 162.436 259.76 162.133 259.636C161.8 259.499 161.46 259.383 161.113 259.29C160.935 259.243 160.755 259.192 160.565 259.159C160.376 259.126 160.193 259.086 159.999 259.061C159.616 259.005 159.23 258.971 158.843 258.957C158.454 258.948 158.065 258.949 157.685 258.975C157.306 259.001 156.991 259.028 156.667 259.073C156.372 257.764 155.804 256.531 155 255.456ZM82.2524 225.824C81.9859 226.286 81.9137 226.834 82.0517 227.349C82.1896 227.864 82.5263 228.303 82.9878 228.569L107.466 242.702L109.762 238.724L83.5441 223.587L82.2524 225.824ZM155.04 271.524C160.947 283.39 157.841 308.507 149.118 321.439L126 308.091C126 308.091 139.87 293.769 137.286 284.926C137.245 284.79 137.197 284.656 137.149 284.515C137.215 278.458 139.614 274.189 144.191 272.118C148.264 270.27 152.776 270.687 155.04 271.524ZM139.475 305.546C139.134 306.136 138.976 306.814 139.02 307.493C139.065 308.173 139.31 308.825 139.725 309.365C140.139 309.906 140.705 310.311 141.35 310.53C141.995 310.749 142.691 310.772 143.349 310.596C144.007 310.419 144.598 310.052 145.047 309.54C145.496 309.027 145.784 308.394 145.873 307.718C145.962 307.043 145.848 306.356 145.547 305.745C145.246 305.134 144.77 304.626 144.18 304.285C143.389 303.829 142.448 303.705 141.566 303.941C140.684 304.178 139.931 304.755 139.475 305.546ZM75.1259 202.522C75.0454 202.433 74.9449 202.364 74.8326 202.321C74.7203 202.278 74.5993 202.262 74.4797 202.275C74.3601 202.287 74.2452 202.328 74.1444 202.394C74.0437 202.46 73.96 202.548 73.9002 202.653L69.5427 210.2L112.051 234.743L115.486 228.794L80.741 208.734L75.1259 202.522ZM150.394 266.196L150.431 266.218C147.631 266.22 144.861 266.804 142.298 267.933C136.236 270.671 133.825 275.686 132.971 280.247C131.678 279.57 130.38 279.281 129.504 279.628C127.38 280.482 125.089 280.842 122.805 280.68C120.521 280.518 118.304 279.839 116.321 278.695C110.869 275.547 107.697 269.135 110.567 262.39C109.681 261.619 109.024 260.618 108.669 259.498C108.315 258.378 108.275 257.182 108.555 256.041L111.127 245.541L120.456 229.383L150.938 246.981L149.957 248.679L152.55 250.176L149.049 256.239C155.506 259.983 150.404 266.202 150.404 266.202L150.394 266.196ZM125.032 239.506C124.728 240.033 124.645 240.66 124.803 241.248C124.96 241.836 125.345 242.338 125.872 242.643L138.908 250.169C139.435 250.465 140.058 250.542 140.641 250.383C141.225 250.223 141.721 249.84 142.024 249.316C142.326 248.792 142.41 248.17 142.256 247.585C142.103 247 141.725 246.499 141.205 246.191L128.169 238.665C127.641 238.361 127.015 238.278 126.426 238.436C125.838 238.594 125.337 238.978 125.032 239.506ZM121.731 245.223C121.427 245.751 121.344 246.377 121.502 246.966C121.659 247.554 122.044 248.055 122.571 248.36L135.607 255.886C136.134 256.183 136.757 256.26 137.34 256.1C137.924 255.94 138.42 255.557 138.723 255.033C139.025 254.51 139.109 253.888 138.955 253.303C138.802 252.718 138.424 252.217 137.904 251.909L124.868 244.383C124.34 244.078 123.714 243.996 123.125 244.153C122.537 244.311 122.036 244.696 121.731 245.223ZM119.342 253.953L132.378 261.48C132.639 261.634 132.929 261.736 133.23 261.778C133.53 261.82 133.836 261.802 134.13 261.725C134.424 261.648 134.699 261.513 134.941 261.329C135.182 261.145 135.385 260.915 135.537 260.652C135.688 260.389 135.787 260.098 135.825 259.797C135.864 259.496 135.843 259.19 135.763 258.897C135.683 258.604 135.545 258.33 135.358 258.091C135.171 257.851 134.939 257.651 134.674 257.502L121.638 249.976C121.112 249.679 120.489 249.602 119.906 249.762C119.322 249.922 118.826 250.305 118.523 250.829C118.221 251.353 118.137 251.974 118.291 252.559C118.444 253.144 118.822 253.645 119.342 253.953ZM130.133 273.773C132.046 270.459 130.22 269.03 127.286 267.452C127.05 267.717 126.801 267.988 126.533 268.257C126.217 268.569 125.891 268.881 125.535 269.182C125.178 269.484 124.816 269.761 124.429 270.046C124.048 270.314 123.653 270.562 123.246 270.788C123.047 270.901 122.845 271.004 122.64 271.101C122.435 271.198 122.236 271.285 122.035 271.368C121.652 271.525 121.259 271.657 120.859 271.763C120.507 271.859 120.149 271.931 119.787 271.979C119.457 272.034 119.148 272.041 118.884 272.061C118.621 272.081 118.383 272.063 118.195 272.054L117.603 272.007L118.167 271.846C118.342 271.788 118.554 271.708 118.791 271.619C119.056 271.519 119.311 271.396 119.554 271.251C119.842 271.098 120.119 270.926 120.385 270.736C120.678 270.528 120.958 270.301 121.222 270.056C121.358 269.929 121.494 269.803 121.622 269.661C121.75 269.519 121.884 269.385 122.014 269.224C122.263 268.93 122.497 268.622 122.714 268.303C122.929 267.986 123.128 267.658 123.311 267.322C123.488 266.993 123.659 266.651 123.81 266.32C123.897 266.122 123.978 265.931 124.055 265.739L123.782 265.582C119.193 262.932 116.124 259.659 113.514 264.181C112.242 266.385 111.898 269.004 112.557 271.462C113.217 273.919 114.825 276.015 117.029 277.286C119.233 278.558 121.852 278.902 124.31 278.243C126.768 277.583 128.863 275.975 130.135 273.77L130.133 273.773Z" fill="black"/>
</g>
<g clip-path="url(#clip4_5_117)">
<path d="M320.472 255.456C319.874 255.531 319.28 255.635 318.692 255.767C318.26 255.868 317.82 255.979 317.377 256.119C316.931 256.259 316.491 256.418 316.058 256.595C315.628 256.775 315.209 256.977 314.801 257.202L314.212 257.542C314.018 257.654 313.839 257.787 313.663 257.912C313.327 258.153 313.007 258.415 312.704 258.697C312.437 258.945 312.185 259.209 311.952 259.49C311.729 259.741 311.559 259.998 311.401 260.212C311.243 260.426 311.135 260.634 311.04 260.798L310.767 261.324L311.204 260.932C311.347 260.813 311.528 260.679 311.727 260.524C311.926 260.369 312.171 260.218 312.457 260.066C312.742 259.904 313.036 259.76 313.34 259.636C313.672 259.499 314.012 259.383 314.359 259.29C314.537 259.243 314.717 259.192 314.907 259.159C315.096 259.126 315.279 259.086 315.473 259.061C315.856 259.005 316.242 258.971 316.629 258.957C317.018 258.948 317.407 258.949 317.787 258.975C318.166 259.001 318.481 259.028 318.805 259.073C319.1 257.764 319.668 256.531 320.472 255.456ZM393.22 225.824C393.486 226.286 393.558 226.834 393.42 227.349C393.282 227.864 392.946 228.303 392.484 228.569L368.006 242.702L365.71 238.724L391.928 223.587L393.22 225.824ZM320.432 271.524C314.525 283.39 317.631 308.507 326.354 321.439L349.472 308.091C349.472 308.091 335.602 293.769 338.186 284.926C338.227 284.79 338.275 284.656 338.323 284.515C338.257 278.458 335.858 274.189 331.281 272.118C327.208 270.27 322.696 270.687 320.432 271.524ZM335.997 305.546C336.338 306.136 336.496 306.814 336.452 307.493C336.407 308.173 336.162 308.825 335.747 309.365C335.333 309.906 334.767 310.311 334.122 310.53C333.477 310.749 332.781 310.772 332.123 310.596C331.465 310.419 330.874 310.052 330.425 309.54C329.976 309.027 329.688 308.394 329.599 307.718C329.511 307.043 329.624 306.356 329.925 305.745C330.226 305.134 330.702 304.626 331.292 304.285C332.083 303.829 333.024 303.705 333.906 303.941C334.788 304.178 335.541 304.755 335.997 305.546ZM400.346 202.522C400.427 202.433 400.527 202.364 400.639 202.321C400.752 202.278 400.873 202.262 400.992 202.275C401.112 202.287 401.227 202.328 401.328 202.394C401.428 202.46 401.512 202.548 401.572 202.653L405.929 210.2L363.421 234.743L359.986 228.794L394.731 208.734L400.346 202.522ZM325.078 266.196L325.041 266.218C327.842 266.22 330.611 266.804 333.174 267.933C339.236 270.671 341.647 275.686 342.501 280.247C343.794 279.57 345.092 279.281 345.968 279.628C348.093 280.482 350.383 280.842 352.667 280.68C354.951 280.518 357.169 279.839 359.151 278.695C364.603 275.547 367.775 269.135 364.905 262.39C365.791 261.619 366.448 260.618 366.803 259.498C367.157 258.378 367.197 257.182 366.917 256.041L364.345 245.541L355.016 229.383L324.535 246.981L325.515 248.679L322.922 250.176L326.423 256.239C319.967 259.983 325.069 266.202 325.069 266.202L325.078 266.196ZM350.44 239.506C350.744 240.033 350.827 240.66 350.669 241.248C350.512 241.836 350.127 242.338 349.6 242.643L336.564 250.169C336.037 250.465 335.414 250.542 334.831 250.383C334.247 250.223 333.751 249.84 333.448 249.316C333.146 248.792 333.062 248.17 333.216 247.585C333.369 247 333.747 246.499 334.267 246.191L347.303 238.665C347.831 238.361 348.458 238.278 349.046 238.436C349.634 238.594 350.136 238.978 350.44 239.506ZM353.741 245.223C354.045 245.751 354.128 246.377 353.97 246.966C353.813 247.554 353.428 248.055 352.901 248.36L339.865 255.886C339.338 256.183 338.715 256.26 338.132 256.1C337.548 255.94 337.052 255.557 336.749 255.033C336.447 254.51 336.363 253.888 336.517 253.303C336.67 252.718 337.048 252.217 337.568 251.909L350.604 244.383C351.132 244.078 351.758 243.996 352.347 244.153C352.935 244.311 353.437 244.696 353.741 245.223ZM356.13 253.953L343.094 261.48C342.833 261.634 342.543 261.736 342.243 261.778C341.942 261.82 341.636 261.802 341.342 261.725C341.048 261.648 340.773 261.513 340.531 261.329C340.29 261.145 340.087 260.915 339.935 260.652C339.784 260.389 339.685 260.098 339.647 259.797C339.608 259.496 339.629 259.19 339.709 258.897C339.789 258.604 339.927 258.33 340.114 258.091C340.301 257.851 340.533 257.651 340.798 257.502L353.834 249.976C354.361 249.679 354.983 249.602 355.567 249.762C356.15 249.922 356.647 250.305 356.949 250.829C357.251 251.353 357.335 251.974 357.182 252.559C357.028 253.144 356.65 253.645 356.13 253.953ZM345.339 273.773C343.426 270.459 345.252 269.03 348.186 267.452C348.422 267.717 348.671 267.988 348.939 268.257C349.255 268.569 349.581 268.881 349.937 269.182C350.294 269.484 350.656 269.761 351.043 270.046C351.424 270.314 351.819 270.562 352.226 270.788C352.425 270.901 352.627 271.004 352.832 271.101C353.037 271.198 353.236 271.285 353.437 271.368C353.82 271.525 354.213 271.657 354.613 271.763C354.965 271.859 355.323 271.931 355.685 271.979C356.015 272.034 356.324 272.041 356.588 272.061C356.851 272.081 357.089 272.063 357.277 272.054L357.869 272.007L357.305 271.846C357.13 271.788 356.918 271.708 356.681 271.619C356.416 271.519 356.161 271.396 355.918 271.251C355.63 271.098 355.353 270.926 355.087 270.736C354.794 270.528 354.514 270.301 354.25 270.056C354.114 269.929 353.978 269.803 353.85 269.661C353.722 269.519 353.588 269.385 353.458 269.224C353.209 268.93 352.975 268.622 352.758 268.303C352.543 267.986 352.344 267.658 352.161 267.322C351.984 266.993 351.813 266.651 351.662 266.32C351.575 266.122 351.494 265.931 351.417 265.739L351.69 265.582C356.279 262.932 359.348 259.659 361.958 264.181C363.23 266.385 363.574 269.004 362.915 271.462C362.255 273.919 360.647 276.015 358.443 277.286C356.239 278.558 353.62 278.902 351.162 278.243C348.704 277.583 346.609 275.975 345.337 273.77L345.339 273.773Z" fill="black"/>
</g>
<defs>
<clipPath id="clip0_5_117">
<rect width="123" height="123" fill="white" transform="translate(255 294)"/>
</clipPath>
<clipPath id="clip1_5_117">
<rect width="123" height="123" fill="white" transform="matrix(-1 0 0 1 224 294)"/>
</clipPath>
<clipPath id="clip2_5_117">
<rect width="164" height="163" fill="white" transform="translate(160 113)"/>
</clipPath>
<clipPath id="clip3_5_117">
<rect width="138.703" height="138.703" fill="white" transform="matrix(-0.866025 -0.5 -0.5 0.866025 206.472 236.352)"/>
</clipPath>
<clipPath id="clip4_5_117">
<rect width="138.703" height="138.703" fill="white" transform="translate(269 236.352) rotate(-30)"/>
</clipPath>
</defs>
</svg>
